<?xml version="1.0" encoding="utf-8"?>
<!-- Generator: Adobe Illustrator 22.0.0, SVG Export Plug-In . SVG Version: 6.00 Build 0)  -->
<svg version="1.1" xmlns="http://www.w3.org/2000/svg" xmlns:xlink="http://www.w3.org/1999/xlink" x="0px" y="0px"
	 viewBox="0 0 1140 360" style="enable-background:new 0 0 1140 360;" xml:space="preserve">
<style type="text/css">
	.st0{fill:#1D4380;}
	.st1{fill:#59B4D9;}
	.st2{fill:#FFFFFF;}
</style>
<g id="Layer_1">
	<path class="st0" d="M0,0h1140v360H0V0z"/>
</g>
<g id="Layer_2">
	
		<ellipse transform="matrix(0.2196 -0.9756 0.9756 0.2196 231.3914 504.4257)" class="st1" cx="431" cy="107.6" rx="50.6" ry="50.6"/>
	
		<ellipse transform="matrix(0.2196 -0.9756 0.9756 0.2196 123.3798 369.4056)" class="st1" cx="292.6" cy="107.6" rx="50.6" ry="50.6"/>
	
		<ellipse transform="matrix(0.7071 -0.7071 0.7071 0.7071 90.6895 434.1181)" class="st1" cx="569.4" cy="107.6" rx="50.6" ry="50.6"/>
	
		<ellipse transform="matrix(0.2369 -0.9715 0.9715 0.2369 541.1664 904.1715)" class="st1" cx="846.2" cy="107.6" rx="50.6" ry="50.6"/>
	
		<ellipse transform="matrix(0.2369 -0.9715 0.9715 0.2369 435.5588 769.715)" class="st1" cx="707.8" cy="107.6" rx="50.6" ry="50.6"/>
	<path class="st2" d="M416.9,104.4l4.4-12.6c0.2-0.5,0.7-0.8,1.1-0.8c0.5,0,1,0.4,1.1,0.9l6.5,22.8l6.6-18.1c0.2-0.4,0.5-0.7,1-0.8
		c0.4,0,0.9,0.2,1.1,0.6l4.8,7.9h18.8c1.7-4.7,1.4-7.8,1.4-7.8c0-10.2-8.3-18.5-18.5-18.5c-6.3,0-11.9,3.2-15.3,8.1
		c-3.3-4.9-8.9-8.1-15.3-8.1c-10.2,0-18.5,8.3-18.5,18.5c0,0-0.2,3.2,1.5,8.1H416.9z"/>
	<path class="st2" d="M443.4,113.5c-0.4,0-0.8-0.2-1-0.6l-3.8-6.3l-7,19.2c-0.2,0.5-0.6,0.8-1.1,0.8c0,0,0,0,0,0
		c-0.5,0-0.9-0.4-1.1-0.9l-6.4-22.7l-3.5,9.9c-0.2,0.5-0.6,0.8-1.1,0.8h-19.1c3.5,7.6,11.7,18.1,31.3,26.6v0c0,0,0,0,0,0
		c0,0,0,0,0,0v0c19.8-8.6,28-19.2,31.4-26.8H443.4z"/>
	<path class="st2" d="M317.5,87.9c-1-5.6-7-9.5-13-8.2c-5.6,1.3-9.5,5.4-15.5,3.4c-3.1-1.1-6.2-2.3-9.3-3.2c-4-1.1-8.6,1.2-10.9,4.5
		c-2.2,3.3-1,7.8-0.5,11.4c0.7,4.9,1.3,9.8,2,14.8c0.5,3.3,1,6.6,1.3,9.9c0.4,3.5,0.4,7.6,3,10.3c2,2.1,8.4,4.8,9.1,0.3
		c0.8-4.8-0.5-10,0-14.8c1.1-10.5,17.2-9.7,17.7,0.7c0.2,4.6-0.8,9.7,0,14.2c0.9,4.7,7.8,1.3,9.6-1c1.5-2,1.7-4.2,2-6.5
		c0.7-5.6,1.5-11.2,2.3-16.8c0.7-5.4,1.5-10.8,2.2-16.2C317.7,89.8,317.6,88.8,317.5,87.9z M280.3,86.1c-3.6,4.7-3.8,12.7-3.8,15.9
		c0,0.2-0.5,0.3-0.6,0.1c-6.6-14.1,1.8-16,4.1-16.3C280.3,85.8,280.5,86,280.3,86.1z"/>
	<path class="st2" d="M745.8,375.6v3.2V375.6z"/>
	<g>
		<path class="st2" d="M360.1,242.1"/>
	</g>
	<path class="st2" d="M560.5,85.5v-3.6c0-1.5,1.2-2.7,2.7-2.7h14.5c1.5,0,2.7,1.2,2.7,2.7v3.6h4.1v-3.6c0-3.7-3-6.8-6.8-6.8h-14.5
		c-3.7,0-6.8,3-6.8,6.8v3.6H560.5z"/>
	<g>
		<path class="st2" d="M555.6,109.2c0.7-7.6,7.1-13.6,14.9-13.6s14.2,6,14.9,13.6h14.4V93c0-2.6-2.1-4.7-4.7-4.7h-49.2
			c-2.6,0-4.7,2.1-4.7,4.7v16.3H555.6z"/>
		<path class="st2" d="M585.3,111.9c-0.7,7.6-7.1,13.6-14.9,13.6s-14.2-6-14.9-13.6h-14.4v16.3c0,2.6,2.1,4.7,4.7,4.7h49.2
			c2.6,0,4.7-2.1,4.7-4.7v-16.3H585.3z"/>
	</g>
	<path class="st2" d="M580.2,107.5h-6.9c-0.4,0-0.7-0.3-0.7-0.7v-6.9c0-0.4-0.3-0.7-0.7-0.7h-2.8c-0.4,0-0.7,0.3-0.7,0.7v6.9
		c0,0.4-0.3,0.7-0.7,0.7h-6.9c-0.4,0-0.7,0.3-0.7,0.7v2.8c0,0.4,0.3,0.7,0.7,0.7h6.9c0.4,0,0.7,0.3,0.7,0.7v6.9
		c0,0.4,0.3,0.7,0.7,0.7h2.8c0.4,0,0.7-0.3,0.7-0.7v-6.9c0-0.4,0.3-0.7,0.7-0.7h6.9c0.4,0,0.7-0.3,0.7-0.7v-2.8
		C580.9,107.8,580.6,107.5,580.2,107.5z"/>
	<path class="st2" d="M722.2,85h-29.5c-7.5,0-13.5,6.1-13.5,13.5v26.8c0,0.6,0.5,1.1,1.1,1.1h54.3c0.6,0,1.1-42.5,1.1-43.1v15.2
		C735.7,91,729.7,85,722.2,85z M690.3,120.8c-1.9,0-3.4-1.5-3.4-3.4c0-1.9,1.5-3.4,3.4-3.4s3.4,1.5,3.4,3.4
		C693.7,119.3,692.1,120.8,690.3,120.8z M709.1,110.7c2.1,0.6,3.8,2.2,4.4,4.4h-4.4V110.7z M705.9,115h-4.4c0.6-2.1,2.2-3.8,4.4-4.4
		V115z M701.5,118.2h4.4v4.4C703.8,122,702.1,120.3,701.5,118.2z M709.1,122.6v-4.4h4.4C712.9,120.3,711.2,122,709.1,122.6z
		 M724.7,120.8c-1.9,0-3.4-1.5-3.4-3.4c0-1.9,1.5-3.4,3.4-3.4c1.9,0,3.4,1.5,3.4,3.4C728.1,119.3,726.5,120.8,724.7,120.8z
		 M728.1,107.3h-41.3v-8.2c0-3.8,3.1-6.9,6.9-6.9h27.4c3.8,0,6.9,3.1,6.9,6.9V107.3z"/>
	<path class="st2" d="M722.5,133.7h2.9c1.3,0,2.4-1.1,2.4-2.4v-3.3c0-1.3-1.1-2.4-2.4-2.4h-2.9c-1.3,0-2.4,1.1-2.4,2.4v3.3
		C720.1,132.7,721.2,133.7,722.5,133.7z"/>
	<path class="st2" d="M688.5,133.7h2.9c1.3,0,2.4-1.1,2.4-2.4v-3.3c0-1.3-1.1-2.4-2.4-2.4h-2.9c-1.3,0-2.4,1.1-2.4,2.4v3.3
		C686.2,132.7,687.2,133.7,688.5,133.7z"/>
	<path class="st2" d="M713.7,83.4c0.5,0,1-0.5,0.9-1c-0.5-4-3.9-7.1-8.1-7.1s-7.6,3.1-8.1,7.1c-0.1,0.5,0.4,1,0.9,1H713.7z"/>
	<g>
		<path class="st2" d="M867.3,103.9l9-10.1c2.6-2.9,2.3-7.3-0.6-9.9l-8.1-7.2c-2.9-2.6-7.3-2.3-9.9,0.6l-9,10.1L867.3,103.9z"/>
		<path class="st2" d="M829.5,109l-9,10.1c-2.6,2.9-2.3,7.3,0.6,9.9l8.1,7.2c2.9,2.6,7.3,2.3,9.9-0.6l9-10.1L829.5,109z"/>
	</g>
	<path class="st2" d="M847,89.5L831.3,107l18.5,16.5l15.6-17.5L847,89.5z M837.9,108.5c-0.8-0.7-0.8-1.8-0.1-2.6
		c0.7-0.8,1.8-0.8,2.6-0.1c0.8,0.7,0.8,1.8,0.1,2.6C839.9,109.2,838.7,109.2,837.9,108.5z M842.4,103.6c-0.8-0.7-0.8-1.8-0.1-2.6
		c0.7-0.8,1.8-0.8,2.6-0.1c0.8,0.7,0.8,1.8,0.1,2.6S843.1,104.2,842.4,103.6z M846.8,98.6c-0.8-0.7-0.8-1.8-0.1-2.6
		c0.7-0.8,1.8-0.8,2.6-0.1c0.8,0.7,0.8,1.8,0.1,2.6C848.8,99.2,847.6,99.2,846.8,98.6z M842.7,112.8c-0.8-0.7-0.8-1.8-0.1-2.6
		c0.7-0.8,1.8-0.8,2.6-0.1c0.8,0.7,0.8,1.8,0.1,2.6C844.7,113.5,843.5,113.5,842.7,112.8z M847.2,107.9c-0.8-0.7-0.8-1.8-0.1-2.6
		c0.7-0.8,1.8-0.8,2.6-0.1c0.8,0.7,0.8,1.8,0.1,2.6C849.1,108.5,848,108.5,847.2,107.9z M851.6,102.9c-0.8-0.7-0.8-1.8-0.1-2.6
		c0.7-0.8,1.8-0.8,2.6-0.1c0.8,0.7,0.8,1.8,0.1,2.6S852.4,103.5,851.6,102.9z M847.6,117.1c-0.8-0.7-0.8-1.8-0.1-2.6
		c0.7-0.8,1.8-0.8,2.6-0.1c0.8,0.7,0.8,1.8,0.1,2.6S848.3,117.8,847.6,117.1z M852,112.1c-0.8-0.7-0.8-1.8-0.1-2.6
		c0.7-0.8,1.8-0.8,2.6-0.1c0.8,0.7,0.8,1.8,0.1,2.6C853.9,112.8,852.8,112.8,852,112.1z M856.5,107.2c-0.8-0.7-0.8-1.8-0.1-2.6
		c0.7-0.8,1.8-0.8,2.6-0.1c0.8,0.7,0.8,1.8,0.1,2.6C858.4,107.8,857.2,107.8,856.5,107.2z"/>
</g>
</svg>
