<?xml version="1.0" encoding="utf-8"?>
<!-- Generator: Adobe Illustrator 22.0.0, SVG Export Plug-In . SVG Version: 6.00 Build 0)  -->
<svg version="1.1" xmlns="http://www.w3.org/2000/svg" xmlns:xlink="http://www.w3.org/1999/xlink" x="0px" y="0px"
	 viewBox="0 0 1140 360" style="enable-background:new 0 0 1140 360;" xml:space="preserve">
<style type="text/css">
	.st0{fill:#7FBA00;}
	.st1{fill:#FFFFFF;}
	.st2{font-family:'Tahoma';}
	.st3{font-size:40px;}
	.st4{clip-path:url(#SVGID_1_);fill:#FFFFFF;}
</style>
<g id="bg">
	<title>banner3b</title>
	<path class="st0" d="M0,0h1140v360H0V0z"/>
</g>
<g id="Layer_2">
	<g>
		<text transform="matrix(1 0 0 1 735.8889 166)" class="st1 st2 st3">SERVICE </text>
		<text transform="matrix(1 0 0 1 248.0121 88)" class="st1 st2 st3">PATIENTS</text>
		<g id="Layer_1_1_">
			<g id="Layer_2_2_">
				<g>
					<g>
						<g>
							<g>
								<defs>
									<rect id="SVGID_3_" x="430" y="17" width="343" height="169"/>
								</defs>
								<clipPath id="SVGID_1_">
									<use xlink:href="#SVGID_3_"  style="overflow:visible;"/>
								</clipPath>
								<path class="st4" d="M666.2,129.9c-1.2,0-2.3,0.8-2.7,1.9l-6.2,18.7h-1.5c-1.6,0-2.9,1.2-2.9,2.8s1.3,2.9,2.9,2.8h3.6
									c1.2,0,2.3-0.8,2.7-1.9l3.3-9.9l6.7,38.7c0.5,3.1,4.9,3.1,5.6,0.1l7-34.2l6,6.4c0.5,0.6,1.3,0.9,2.1,0.9h31
									c1.6,0,2.9-1.2,2.9-2.8s-1.3-2.9-2.9-2.8H694l-8.9-9.4c-1.6-1.7-4.4-0.9-4.8,1.4l-5.1,24.9l-6.1-35.1
									C668.7,130.9,667.5,129.9,666.2,129.9L666.2,129.9z"/>
							</g>
						</g>
					</g>
					<path class="st1" d="M543.3,24.4c-1.4,0-2.5,1-2.8,2.3l-9,46.5H498c-1.6,0-2.9,1.3-2.9,2.8s1.3,2.9,2.9,2.8h35.9
						c1.4,0,2.5-1,2.8-2.3l7.6-39.2l15.2,38.9c0.9,2.4,4.4,2.4,5.3,0l13.9-36.7l8.3,85.2c0.3,3.1,4.7,3.5,5.5,0.5l10.3-35.7
						l11.8,35.8c0.9,2.6,4.5,2.6,5.4,0l11.7-35l7.9,34.2v0.1l7.9,29.5c0.3,1.2,1.5,2.1,2.7,2.1h5.6c1.6,0,2.9-1.2,2.9-2.8
						s-1.3-2.9-2.9-2.8h-3.5l-7.3-27.3l-10.1-44c-0.6-2.8-4.5-3-5.4-0.3l-12.2,36.5l-12-36.4c-0.9-2.6-4.6-2.6-5.4,0.1l-8.7,30.3
						l-8-82.5c-0.3-3-4.4-3.5-5.5-0.7l-15.7,41l-16-41.1C545.6,25.1,544.5,24.4,543.3,24.4L543.3,24.4z"/>
					<path class="st1" d="M491.1,52.5c-1.3,0.1-2.4,1-2.7,2.3l-6.1,35.1L477.2,65c-0.5-2.2-3.3-3-4.8-1.4l-8.9,9.4h-29.8
						c-1.6,0-2.9,1.3-2.9,2.8c0,1.6,1.3,2.9,2.9,2.8h31c0.8,0,1.5-0.3,2.1-0.9l6-6.4l7,34.2c0.6,3.1,5,3,5.6-0.1l6.7-38.7l3.3,9.9
						c0.4,1.2,1.5,1.9,2.7,1.9h3.6c1.6,0,2.9-1.3,2.9-2.8c0-1.6-1.3-2.9-2.9-2.8h-1.5L494,54.2C493.5,53.2,492.4,52.4,491.1,52.5
						L491.1,52.5z"/>
				</g>
			</g>
		</g>
	</g>
</g>
</svg>
