<?xml version="1.0" encoding="utf-8"?>
<!-- Generator: Adobe Illustrator 22.0.0, SVG Export Plug-In . SVG Version: 6.00 Build 0)  -->
<svg version="1.1" xmlns="http://www.w3.org/2000/svg" xmlns:xlink="http://www.w3.org/1999/xlink" x="0px" y="0px"
	 viewBox="0 0 1140 360" style="enable-background:new 0 0 1140 360;" xml:space="preserve">
<style type="text/css">
	.st0{fill:#215A6D;}
	.st1{fill:#2D2D29;}
	.st2{clip-path:url(#SVGID_2_);fill:#FFFFFF;}
	.st3{fill:#FFFFFF;}
	.st4{fill:#FF0000;}
</style>
<g id="Layer_2">
	<rect class="st0" width="1140" height="360"/>
</g>
<g id="Layer_1">
	<g id="Layer_2_1_">
		<g>
			<path class="st1" d="M572.8,88.9c-3.6,0-6.1-1-7.5-2.9s-2.2-4.9-2.2-8.9h23.8l0.3-4.1c0-5.8-1.2-10.1-3.6-12.8
				c-2.4-2.7-6-4.1-10.9-4.1c-10,0-15,6.3-15,18.9c0,6.3,1.1,11,3.2,14c2.2,3,5.8,4.5,11,4.5c3.9,0,8.6-0.4,14-1.2l-0.1-4.2
				l-2.1,0.2C580,88.7,576.3,88.9,572.8,88.9L572.8,88.9z M563,72.8c0-4.2,0.9-7.3,2.5-9.2c1.6-1.9,4-2.9,7.2-2.9s5.5,0.9,6.9,2.7
				c1.4,1.8,2.1,4.9,2.1,9.4H563L563,72.8z M617.9,41.2v15.9c-3.1-0.6-6.1-0.9-8.9-0.9c-5.4,0-9.2,1.5-11.6,4.6
				c-2.3,3.1-3.5,8.1-3.5,15.1s1.3,11.8,3.9,14.4c1.2,1.2,2.6,2.1,4,2.6s3.1,0.7,5,0.7c3.6,0,7.2-1.1,10.9-3.2v2.4h5.3V41.2H617.9
				L617.9,41.2z M602,86.4c-1.7-1.9-2.5-5.7-2.5-11.2c0-4.9,0.7-8.5,2.2-10.8c1.4-2.3,4-3.5,7.6-3.5c2.6,0,5.5,0.3,8.6,0.9v24.4
				l-1.4,0.6c-1,0.4-2.3,0.9-4,1.3c-1.7,0.5-3.2,0.7-4.6,0.7s-2.5-0.2-3.3-0.5C603.6,88,602.8,87.3,602,86.4L602,86.4L602,86.4z
				 M639,92.9v-36h-5.4v36H639L639,92.9z M639,48.8v-6.3h-5.4v6.3H639L639,48.8z"/>
			<path class="st1" d="M640,110.7c-1.8-1.9-4.8-2.8-8.9-2.8c-4.1,0-8.8,0.5-14,1.6l0.2,4.1l2.2-0.2c4.1-0.5,8.1-0.7,12-0.7
				c1.8,0,3.3,0.5,4.3,1.6c1.1,1.1,1.6,2.8,1.6,5.3v3.1l-11.3,1.1c-3.8,0.4-6.6,1.4-8.4,3.1c-1.8,1.7-2.7,4.2-2.7,7.7
				s0.9,6.2,2.6,8.1c1.7,1.9,4.2,2.8,7.6,2.8c4.3,0,8.6-1,13-2.9c1.9,1.9,4.8,2.9,8.6,2.9l0.2-4.2c-2.6-0.3-4-1.4-4.2-3.2v-18.4
				C642.7,115.5,641.8,112.6,640,110.7L640,110.7z M622,129.6c1-1.1,2.5-1.7,4.7-1.9l10.7-1v11.9l-1.7,0.6c-3.2,1.1-6.4,1.7-9.6,1.7
				c-3.6,0-5.5-2.2-5.5-6.6C620.6,132.2,621,130.7,622,129.6L622,129.6z M672,108.7h-11.4v-11h-5.3v11h-5.1v4.7h5.1v18.9
				c0,5.1,0.7,8.6,2.2,10.4c1.4,1.8,4,2.7,7.8,2.7c1.7,0,4.1-0.3,7.3-0.8l-0.4-4.5l-6.4,0.4c-2.3,0-3.7-0.6-4.3-1.9
				c-0.6-1.3-0.9-4-0.9-8.1v-17.2H672V108.7L672,108.7z M680.6,112.1c-2.3,2.8-3.5,7.6-3.5,14.4s1.1,11.7,3.2,14.6
				c2.1,2.9,6,4.3,11.6,4.3c2.2,0,5.5-0.3,10-1l-0.2-4.5l-8.5,0.6c-4.3,0-7.2-1-8.5-3.1c-1.4-2.1-2.1-5.7-2.1-11s0.7-8.9,2.2-10.8
				s4.2-2.9,8.3-2.9c1.8,0,4.7,0.2,8.5,0.6l0.2-4.4l-1.7-0.2c-3.8-0.6-6.5-0.9-8.1-0.9C686.8,107.9,682.9,109.3,680.6,112.1
				L680.6,112.1z M715.5,114.9l1.4-0.5c2.8-1.1,5.8-1.7,8.8-1.7c3.2,0,5.2,0.9,6.2,2.8c1,1.8,1.5,5.3,1.5,10.3v18.9h5.4v-19
				c0-6.6-0.8-11.2-2.5-13.8c-1.7-2.6-4.9-3.9-9.7-3.9c-3.6,0-7.2,0.9-11.1,2.7V93h-5.4v51.7h5.4L715.5,114.9L715.5,114.9z"/>
			<g>
				<g>
					<defs>
						<rect id="SVGID_1_" x="396" y="35" width="343" height="169"/>
					</defs>
					<clipPath id="SVGID_2_">
						<use xlink:href="#SVGID_1_"  style="overflow:visible;"/>
					</clipPath>
					<path class="st2" d="M632.2,147.9c-1.2,0-2.3,0.8-2.7,1.9l-6.2,18.7h-1.5c-1.6,0-2.9,1.2-2.9,2.8s1.3,2.9,2.9,2.8h3.6
						c1.2,0,2.3-0.8,2.7-1.9l3.3-9.9l6.7,38.7c0.5,3.1,4.9,3.1,5.6,0.1l7-34.2l6,6.4c0.5,0.6,1.3,0.9,2.1,0.9h31
						c1.6,0,2.9-1.2,2.9-2.8s-1.3-2.9-2.9-2.8H660l-8.9-9.4c-1.6-1.7-4.4-0.9-4.8,1.4l-5.1,24.9l-6.1-35.1
						C634.7,148.9,633.5,147.9,632.2,147.9L632.2,147.9z"/>
				</g>
			</g>
			<path class="st3" d="M509.3,42.4c-1.4,0-2.5,1-2.8,2.3l-9,46.5H464c-1.6,0-2.9,1.3-2.9,2.8s1.3,2.9,2.9,2.8h35.9
				c1.4,0,2.5-1,2.8-2.3l7.6-39.2l15.2,38.9c0.9,2.4,4.4,2.4,5.3,0l13.9-36.7l8.3,85.2c0.3,3.1,4.7,3.5,5.5,0.5l10.3-35.7l11.8,35.8
				c0.9,2.6,4.5,2.6,5.4,0l11.7-35l7.9,34.2v0.1l7.9,29.5c0.3,1.2,1.5,2.1,2.7,2.1h5.6c1.6,0,2.9-1.2,2.9-2.8s-1.3-2.9-2.9-2.8h-3.5
				l-7.3-27.3l-10.1-44c-0.6-2.8-4.5-3-5.4-0.3l-12.2,36.5l-12-36.4c-0.9-2.6-4.6-2.6-5.4,0.1l-8.7,30.3l-8-82.5
				c-0.3-3-4.4-3.5-5.5-0.7l-15.7,41l-16-41.1C511.6,43.1,510.5,42.4,509.3,42.4L509.3,42.4z"/>
			<path class="st3" d="M457.1,70.5c-1.3,0.1-2.4,1-2.7,2.3l-6.1,35.1L443.2,83c-0.5-2.2-3.3-3-4.8-1.4l-8.9,9.4h-29.8
				c-1.6,0-2.9,1.3-2.9,2.8c0,1.6,1.3,2.9,2.9,2.8h31c0.8,0,1.5-0.3,2.1-0.9l6-6.4l7,34.2c0.6,3.1,5,3,5.6-0.1l6.7-38.7l3.3,9.9
				c0.4,1.2,1.5,1.9,2.7,1.9h3.6c1.6,0,2.9-1.3,2.9-2.8c0-1.6-1.3-2.9-2.9-2.8h-1.5L460,72.2C459.5,71.2,458.4,70.4,457.1,70.5
				L457.1,70.5z"/>
			<path class="st4" d="M629.4,43c-1.6,0-2.9,1.3-2.9,2.8c0,1.6,1.3,2.9,2.9,2.8h14.1c1.6,0,2.9-1.3,2.9-2.8c0-1.6-1.3-2.9-2.9-2.8
				H629.4z"/>
			<path class="st4" d="M636.4,36c-1.6,0-2.8,1.3-2.8,2.9v7v7c0,1.6,1.2,2.9,2.8,2.9s2.9-1.3,2.8-2.9v-7v-7
				C639.3,37.3,638,36,636.4,36L636.4,36z"/>
		</g>
	</g>
</g>
</svg>
