<?xml version="1.0" encoding="utf-8"?>
<!-- Generator: Adobe Illustrator 22.0.0, SVG Export Plug-In . SVG Version: 6.00 Build 0)  -->
<svg version="1.1" id="Layer_1" xmlns="http://www.w3.org/2000/svg" xmlns:xlink="http://www.w3.org/1999/xlink" x="0px" y="0px"
	 viewBox="0 0 1140 360" style="enable-background:new 0 0 1140 360;" xml:space="preserve">
<style type="text/css">
	.st0{fill:#7B7B7B;}
	.st1{fill:#3CA2A2;}
	.st2{fill:#FFFFFF;}
	.st3{font-family:'Tahoma';}
	.st4{font-size:40px;}
	.st5{font-size:36px;}
</style>
<g>
	<path class="st0" d="M707.9,783.2c-24.9,0-47.8,11.4-62.9,31.2c-0.4,0.6-0.6,1.3-0.4,2l15.5,55.4c0.3,1,1.2,1.7,2.2,1.7h91.1
		c1,0,2-0.7,2.2-1.7l15.5-55.4c0.2-0.7,0.1-1.5-0.4-2C755.8,794.6,732.8,783.2,707.9,783.2z M751.7,868.9h-87.5l-14.7-52.5
		C663.7,798.3,685,788,708,788s44.3,10.3,58.5,28.4L751.7,868.9z"/>
	<path class="st0" d="M714.7,815.8c0-1.3-1-2.3-2.3-2.3h-8.9c-1.3,0-2.3,1-2.3,2.3v5.8h-5.8c-1.3,0-2.3,1-2.3,2.3v8.9
		c0,1.3,1,2.3,2.3,2.3h5.8v5.8c0,1.3,1,2.3,2.3,2.3h8.9c1.3,0,2.3-1,2.3-2.3v-5.8h5.8c1.3,0,2.3-1,2.3-2.3v-8.9c0-1.3-1-2.3-2.3-2.3
		h-5.8V815.8z M718.2,826.2v4.3h-5.8c-1.3,0-2.3,1-2.3,2.3v5.8h-4.3v-5.8c0-1.3-1-2.3-2.3-2.3h-5.8v-4.3h5.8c1.3,0,2.3-1,2.3-2.3
		v-5.8h4.3v5.8c0,1.3,1,2.3,2.3,2.3H718.2z"/>
	<path class="st0" d="M707.9,806.6c-12,0-21.7,9.7-21.7,21.7s9.7,21.7,21.7,21.7s21.7-9.7,21.7-21.7S719.9,806.6,707.9,806.6z
		 M707.9,845.4c-9.4,0-17.1-7.7-17.1-17.1c0-9.4,7.7-17.1,17.1-17.1c9.4,0,17.1,7.7,17.1,17.1C725,837.8,717.4,845.4,707.9,845.4z"
		/>
</g>
<path class="st1" d="M0,0h1140v360H0V0z"/>
<rect x="569.5" y="61" class="st2" width="1" height="74"/>
<path class="st2" d="M828.2,78.4c-1.9-4.9-5.6-8.9-10.4-11c-4.8-2.2-10.2-2.3-15.1-0.5c-6.8,2.6-11.6,8.7-12.6,15.8
	c-0.9-0.1-1.8-0.1-2.7-0.1c-7.2,0-14,2.8-19.1,7.9s-7.9,11.9-7.9,19.1s2.8,14,7.9,19.1c5.3,5.3,12.2,7.9,19.1,7.9
	c6.8,0,13.7-2.6,18.9-7.7c3.8,4.3,9.3,6.7,14.9,6.7c2.3,0,4.7-0.4,6.9-1.3c4.9-1.9,8.9-5.6,11-10.4c2.2-4.8,2.3-10.2,0.5-15.1
	L828.2,78.4z M803.7,69.5c4.3-1.6,8.9-1.5,13,0.4s7.3,5.2,8.9,9.5l5.2,13.8l-18.2,6.9c-0.1-0.2-0.2-0.4-0.2-0.6c0-0.1,0-0.1-0.1-0.2
	c-0.1-0.3-0.3-0.7-0.4-1c0-0.1-0.1-0.2-0.1-0.2c-0.1-0.3-0.3-0.6-0.5-0.9c0-0.1-0.1-0.2-0.1-0.3c-0.2-0.3-0.3-0.6-0.5-0.8
	c-0.1-0.1-0.1-0.2-0.2-0.3c-0.2-0.3-0.3-0.5-0.5-0.8c-0.1-0.1-0.1-0.2-0.2-0.3c-0.2-0.2-0.3-0.5-0.5-0.7c-0.1-0.1-0.2-0.2-0.3-0.4
	c-0.2-0.2-0.4-0.5-0.5-0.7c-0.1-0.1-0.2-0.2-0.3-0.3c-0.2-0.2-0.4-0.5-0.6-0.7c-0.1-0.1-0.2-0.2-0.3-0.3c-0.3-0.3-0.6-0.7-0.9-1
	c-0.4-0.4-0.9-0.8-1.3-1.2c-0.1-0.1-0.2-0.2-0.3-0.3c-3.5-3-7.6-5-12-5.9C793.7,77,797.8,71.7,803.7,69.5z M763.2,109.5
	c0-6.5,2.5-12.5,7.1-17.1s10.7-7.1,17.1-7.1c1.2,0,2.4,0.1,3.6,0.3c0.1,0,0.1,0,0.2,0.1c3.8,0.6,7.4,2.1,10.5,4.3l0,0
	c0.5,0.3,0.9,0.7,1.4,1.1c0.1,0.1,0.2,0.1,0.2,0.2c0.1,0.1,0.2,0.2,0.3,0.2l-34.2,34.2C765.4,121.2,763.2,115.5,763.2,109.5z
	 M771.3,127.6l34.2-34.2c0,0.1,0.1,0.1,0.1,0.2c0.2,0.2,0.4,0.4,0.6,0.6c0.1,0.1,0.2,0.2,0.2,0.3c0.2,0.2,0.3,0.4,0.5,0.6
	c0.1,0.1,0.1,0.2,0.2,0.3c0.2,0.2,0.3,0.5,0.5,0.7c0.1,0.1,0.1,0.2,0.2,0.3c0.2,0.2,0.3,0.5,0.5,0.7c0,0.1,0.1,0.2,0.1,0.2
	c0.2,0.3,0.3,0.5,0.4,0.8c0,0.1,0.1,0.1,0.1,0.2c0.1,0.3,0.3,0.6,0.4,0.8c0,0.1,0.1,0.1,0.1,0.2c0.1,0.3,0.3,0.6,0.4,0.9
	c0,0.1,0,0.1,0.1,0.2c0.1,0.3,0.2,0.6,0.4,0.9v0.1c0.1,0.3,0.2,0.7,0.3,1v0.1c0.1,0.3,0.2,0.7,0.3,1v0.1c0.1,0.3,0.2,0.7,0.2,1v0.1
	c0.1,0.3,0.1,0.7,0.2,1v0.1c0,0.3,0.1,0.7,0.1,1c0,0.1,0,0.1,0,0.2c0,0.3,0,0.6,0.1,0.9c0,0.1,0,0.2,0,0.3c0,0.3,0,0.6,0,0.8
	c0,0.1,0,0.2,0,0.4c0,0.2,0,0.5,0,0.7s0,0.3,0,0.5s0,0.4,0,0.6s0,0.4-0.1,0.6c0,0.1,0,0.3,0,0.4c0,0.3-0.1,0.5-0.1,0.8
	c0,0.1,0,0.1,0,0.2c-0.7,4.4-2.7,8.7-5.9,12.2l-0.1,0.1c-0.2,0.3-0.5,0.5-0.7,0.8C795.4,135.8,780.8,136.1,771.3,127.6z
	 M836.7,122.7c-1.9,4.1-5.2,7.3-9.5,8.9c-6.7,2.5-14.3,0.5-19-4.9c2.7-3.3,4.6-7.1,5.5-11.1v-0.1c0.1-0.3,0.2-0.7,0.2-1
	c0-0.1,0-0.3,0.1-0.4c0-0.3,0.1-0.5,0.1-0.8c0-0.2,0.1-0.5,0.1-0.7s0-0.3,0.1-0.5c0.3-3.1,0-6.3-0.7-9.3l18.3-6.9l5.2,13.8
	C838.7,113.9,838.5,118.5,836.7,122.7z"/>
<g>
	<path class="st2" d="M972.7,77.6h-24c-0.9-9-8.8-16.1-18.3-16.1h-1c-9.5,0-17.4,7.1-18.3,16.1h-24c-1,0-1.8,0.8-1.8,1.8v55.4
		c0,1,0.8,1.8,1.8,1.8h85.5c1,0,1.8-0.8,1.8-1.8V79.3C974.5,78.3,973.7,77.6,972.7,77.6z M929.5,65h1c7.5,0,13.7,5.5,14.6,12.5
		h-30.3C915.8,70.5,922,65,929.5,65z M970.9,133H889V81.1h23.9H947h23.9V133z"/>
	<path class="st2" d="M943.8,100.5h-7.1v-6.9c0-1-0.8-1.8-1.8-1.8H925c-1,0-1.8,0.8-1.8,1.8v6.9h-7.1c-1,0-1.8,0.8-1.8,1.8v9.6
		c0,1,0.8,1.8,1.8,1.8h7.1v6.9c0,1,0.8,1.8,1.8,1.8h9.9c1,0,1.8-0.8,1.8-1.8v-6.9h7.1c1,0,1.8-0.8,1.8-1.8v-9.6
		C945.7,101.3,944.8,100.5,943.8,100.5z M942,110.1h-7.1c-1,0-1.8,0.8-1.8,1.8v6.9h-6.2v-6.9c0-1-0.8-1.8-1.8-1.8H918V104h7.1
		c1,0,1.8-0.8,1.8-1.8v-6.9h6.2v6.9c0,1,0.8,1.8,1.8,1.8h7.1L942,110.1L942,110.1z"/>
</g>
<g>
	<path class="st2" d="M670,66.5c-19.3,0-37.1,8.8-48.8,24.2c-0.3,0.5-0.5,1-0.3,1.6l12,42.9c0.2,0.8,0.9,1.3,1.7,1.3h70.6
		c0.8,0,1.5-0.5,1.7-1.3l12-42.9c0.2-0.5,0-1.1-0.3-1.6C707.1,75.3,689.3,66.5,670,66.5z M703.9,132.9H636l-11.4-40.7
		c11-14,27.5-22,45.4-22s34.4,8,45.4,22L703.9,132.9z"/>
	<path class="st2" d="M675.3,91.8c0-1-0.8-1.8-1.8-1.8h-6.9c-1,0-1.8,0.8-1.8,1.8v4.5h-4.5c-1,0-1.8,0.8-1.8,1.8v6.9
		c0,1,0.8,1.8,1.8,1.8h4.5v4.5c0,1,0.8,1.8,1.8,1.8h6.9c1,0,1.8-0.8,1.8-1.8v-4.5h4.5c1,0,1.8-0.8,1.8-1.8v-7c0-1-0.8-1.8-1.8-1.8
		h-4.5V91.8z M677.9,99.8v3.3h-4.5c-1,0-1.8,0.8-1.8,1.8v4.5h-3.3V105c0-1-0.8-1.8-1.8-1.8H662v-3.3h4.5c1,0,1.8-0.8,1.8-1.8v-4.5
		h3.3V98c0,1,0.8,1.8,1.8,1.8H677.9z"/>
	<path class="st2" d="M670,84.6c-9.3,0-16.9,7.6-16.9,16.9s7.6,16.9,16.9,16.9s16.9-7.6,16.9-16.9S679.3,84.6,670,84.6z M670,114.7
		c-7.3,0-13.2-5.9-13.2-13.2c0-7.3,5.9-13.2,13.2-13.2s13.2,5.9,13.2,13.2C683.2,108.8,677.3,114.7,670,114.7z"/>
</g>
<text transform="matrix(1 0 0 1 272 117)" class="st2 st3 st4">MATCH WITH </text>
<text transform="matrix(1 0 0 1 523.6 117)" class="st2 st3 st5"> </text>
<g>
	<path class="st2" d="M187.4,79.9h-7c-0.9,0-1.6,0.7-1.6,1.6v7c0,0.9,0.7,1.6,1.6,1.6h7c0.9,0,1.6-0.7,1.6-1.6v-7
		C189,80.6,188.3,79.9,187.4,79.9z M185.8,86.9h-3.9V83h3.9V86.9z"/>
	<path class="st2" d="M192.5,83.4c-0.9,0-1.6,0.7-1.6,1.6s0.7,1.6,1.6,1.6h23.3c0.9,0,1.6-0.7,1.6-1.6s-0.7-1.6-1.6-1.6H192.5z"/>
	<path class="st2" d="M187.4,96.2h-7c-0.9,0-1.6,0.7-1.6,1.6v7c0,0.9,0.7,1.6,1.6,1.6h7c0.9,0,1.6-0.7,1.6-1.6v-7
		C189,96.9,188.3,96.2,187.4,96.2z M185.8,103.2h-3.9v-3.9h3.9V103.2z"/>
	<path class="st2" d="M215.8,99.7h-23.3c-0.9,0-1.6,0.7-1.6,1.6s0.7,1.6,1.6,1.6h23.3c0.9,0,1.6-0.7,1.6-1.6
		C217.3,100.4,216.6,99.7,215.8,99.7z"/>
	<path class="st2" d="M187.4,112.6h-7c-0.9,0-1.6,0.7-1.6,1.6v7c0,0.9,0.7,1.6,1.6,1.6h7c0.9,0,1.6-0.7,1.6-1.6v-7
		C189,113.3,188.3,112.6,187.4,112.6z M185.8,119.6h-3.9v-3.9h3.9V119.6z"/>
	<path class="st2" d="M215.8,116.1h-23.3c-0.9,0-1.6,0.7-1.6,1.6s0.7,1.6,1.6,1.6h23.3c0.9,0,1.6-0.7,1.6-1.6
		C217.3,116.8,216.6,116.1,215.8,116.1z"/>
	<path class="st2" d="M223.6,66.1h-10.3v-3c0-0.9-0.7-1.6-1.6-1.6h-27.4c-0.9,0-1.6,0.7-1.6,1.6v3h-10.3c-0.9,0-1.6,0.7-1.6,1.6V135
		c0,0.9,0.7,1.6,1.6,1.6h51.1c0.9,0,1.6-0.7,1.6-1.6V67.7C225.2,66.8,224.5,66.1,223.6,66.1z M185.9,64.6h24.3v6.1h-24.3V64.6z
		 M222,133.4h-47.9V69.2h8.7v3c0,0.9,0.7,1.6,1.6,1.6h27.4c0.9,0,1.6-0.7,1.6-1.6v-3h8.7v64.2H222z"/>
</g>
</svg>
